<svg width="1000" height="1000" viewBox="0 0 1000 1000" fill="none" xmlns="http://www.w3.org/2000/svg">
<path d="M625.759 439.185C625.759 528.304 625.759 617.423 625.759 706.542C625.759 716.88 624.919 717.708 614.318 717.721C575.1 717.749 535.869 717.749 496.651 717.776C487.801 717.776 486.45 716.495 486.45 707.493C486.422 585.042 486.422 462.592 486.409 340.155C486.409 284.726 486.408 229.311 486.422 173.882C486.422 172.407 486.395 170.932 486.422 169.457C486.601 161.724 487.773 160.552 495.52 160.538C535.29 160.538 575.073 160.538 614.842 160.538C625.511 160.538 625.759 160.772 625.759 171.276C625.759 260.575 625.759 349.887 625.759 439.185Z" fill="#E1051A"/>
<path d="M215.454 442.782C215.454 531.543 215.454 620.289 215.454 709.05C215.454 710.897 215.358 712.744 215.454 714.578C215.716 719.402 213.8 721.732 208.672 721.484C202.786 721.194 196.886 721.374 191 721.374C156.565 721.374 122.131 721.401 87.6825 721.415C78.3088 721.415 77.5782 720.698 77.5782 711.462C77.5782 532.48 77.5782 353.484 77.5782 174.501C77.5782 172.654 77.6472 170.821 77.6748 168.974C77.7023 165.803 79.3151 164.259 82.4719 164.232C84.4982 164.232 86.5246 164.149 88.551 164.149C127.783 164.149 167.001 164.149 206.232 164.149C212.371 164.149 215.45 167.158 215.468 173.178C215.468 263.041 215.468 352.905 215.468 442.768L215.454 442.782Z" fill="#E1051A"/>
<path d="M345.707 721.36C325.829 721.36 305.952 721.36 286.074 721.36C277.486 721.36 276.163 720.036 276.163 711.462C276.163 672.079 276.163 632.696 276.163 593.312C276.163 583.58 277.362 582.298 286.804 582.298C326.56 582.271 366.315 582.271 406.071 582.298C413.584 582.298 415.458 584.09 415.458 591.865C415.514 632.351 415.5 672.837 415.445 713.323C415.445 719.554 413.418 721.415 406.995 721.429C386.565 721.47 366.136 721.429 345.707 721.429V721.36Z" fill="#E1051A"/>
<path d="M345.238 302.012C324.988 302.012 304.752 302.039 284.502 302.012C276.521 302.012 276.163 301.584 276.163 293.562C276.163 253.806 276.163 214.065 276.163 174.309C276.163 164.66 276.618 164.191 285.991 164.191C326.105 164.191 366.233 164.191 406.347 164.191C414.121 164.191 415.445 165.363 415.458 173.041C415.5 213.706 415.403 254.385 415.527 295.05C415.541 300.523 413.129 302.081 408.166 302.053C387.186 301.957 366.205 302.012 345.225 302.012H345.238Z" fill="#E1051A"/>
<path d="M346.024 507.337C325.581 507.337 305.124 507.364 284.681 507.323C276.617 507.309 276.162 506.813 276.162 498.969C276.149 459.007 276.149 419.031 276.162 379.069C276.162 370.177 276.783 369.53 285.453 369.516C325.788 369.502 366.136 369.502 406.471 369.516C414.135 369.516 415.431 370.688 415.431 378.517C415.486 419.224 415.376 459.931 415.527 500.637C415.541 506.372 412.619 507.392 407.918 507.378C387.282 507.309 366.66 507.35 346.024 507.35V507.337Z" fill="#E1051A"/>
<path d="M905.908 245.273C900.849 229.172 893.502 215.084 883.963 202.747C870.854 185.778 855.539 173.013 837.053 167.113C829.513 164.714 821.835 162.826 814.129 161.337C813.812 161.282 813.495 161.185 813.178 161.117C812.558 161.061 811.951 160.965 811.358 160.786C811.303 160.786 811.262 160.786 811.207 160.786C806.217 160.4 801.226 160.262 796.25 160C753.669 160 711.074 160 668.492 160C657.905 160 657.382 160.469 657.382 170.118C657.382 209.874 657.382 249.615 657.382 289.371C657.382 297.407 657.795 297.807 666.81 297.821C689.693 297.848 712.562 297.821 735.445 297.821C758.369 297.821 781.307 297.766 804.232 297.848C805.389 297.848 806.534 298.014 807.678 298.179C808.16 298.248 808.684 298.276 809.277 298.262C825.805 298.069 842.347 298.179 858.875 298.179C875.265 298.179 891.641 298.179 908.031 298.179C913.959 298.179 914.097 297.972 914.11 290.859C914.166 274.883 910.554 260.009 905.908 245.273Z" fill="#E1051A"/>
<path d="M922.189 584.38C922.092 544.046 922.175 503.698 922.134 463.363C922.134 461.682 922.079 460.331 921.927 459.214C921.899 430.886 921.954 402.558 921.927 374.244C921.927 366.552 920.08 365.394 909.259 365.394C853.513 365.381 797.767 365.381 742.021 365.394C728.994 365.394 728.374 365.863 728.36 375.513C728.346 415.268 728.36 455.01 728.36 494.765C728.36 502.802 728.87 503.202 739.953 503.215C763.456 503.243 786.946 503.215 810.449 503.215C810.449 529.214 810.449 555.198 810.449 581.196C765.717 581.196 720.985 581.196 676.253 581.196C665.239 581.196 664.702 581.665 664.702 591.314C664.702 631.07 664.702 670.811 664.702 710.567C664.702 718.603 665.129 719.003 674.503 719.017C698.295 719.045 722.074 719.017 745.867 719.017C770.514 719.017 795.175 718.948 819.823 719.058C822.07 719.058 823.862 718.838 825.24 718.245C835.193 716.922 844.677 713.131 854.092 708.527C866.994 702.213 878.298 693.046 888.195 681.15C901.801 664.787 912.043 645.695 916.758 622.647C919.032 611.564 920.741 600.247 922.01 588.916C922.23 586.958 922.299 585.497 922.189 584.394V584.38Z" fill="#E1051A"/>
<path d="M118.56 837.994H75V764.631H118.56V780.538H94.8226V792.076H116.796V807.984H94.8226V821.838H118.56V837.994Z" fill="#E1051A"/>
<path d="M168.503 837.994L153.505 785.156H153.05C153.753 794.158 154.098 801.147 154.098 806.123V837.98H136.536V764.617H162.934L178.235 816.696H178.635L193.633 764.617H220.072V837.98H201.862V805.82C201.862 804.152 201.89 802.291 201.931 800.251C201.986 798.211 202.207 793.207 202.606 785.253H202.152L187.347 837.994H168.475H168.503Z" fill="#E1051A"/>
<path d="M241.025 764.631H266.609C276.576 764.631 283.978 766.106 288.817 769.069C293.655 772.033 296.068 776.637 296.068 782.896C296.068 787.003 295.02 790.519 292.911 793.427C290.802 796.336 288.031 798.211 284.585 799.051V799.548C289.134 800.747 292.428 802.76 294.469 805.572C296.509 808.384 297.529 812.023 297.529 816.517C297.529 823.175 295.034 828.413 290.03 832.245C285.026 836.077 278.216 837.994 269.587 837.994H241.038V764.631H241.025ZM260.847 792.779H266.816C269.656 792.779 271.861 792.2 273.419 791.029C274.977 789.857 275.749 788.12 275.749 785.804C275.749 781.683 272.633 779.629 266.416 779.629H260.847V792.779ZM260.847 807.281V822.679H267.822C274.012 822.679 277.1 820.073 277.1 814.849C277.1 812.409 276.273 810.534 274.618 809.225C272.964 807.915 270.566 807.267 267.423 807.267H260.847V807.281Z" fill="#E1051A"/>
<path d="M358.968 837.994H315.407V764.631H358.968V780.538H335.23V792.076H357.203V807.984H335.23V821.838H358.968V837.994Z" fill="#E1051A"/>
<path d="M439.209 799.754C439.209 811.995 435.845 821.424 429.105 828.055C422.364 834.671 412.894 837.994 400.68 837.994H376.943V764.631H402.334C414.107 764.631 423.205 767.636 429.601 773.66C436.011 779.684 439.209 788.382 439.209 799.754ZM418.642 800.457C418.642 793.73 417.319 788.754 414.658 785.501C411.998 782.262 407.959 780.635 402.541 780.635H396.765V821.727H401.177C407.2 821.727 411.612 819.977 414.424 816.489C417.236 812.988 418.642 807.653 418.642 800.457Z" fill="#E1051A"/>
<path d="M518.79 795.04H550.453V834.575C541.852 837.525 532.409 838.986 522.098 838.986C510.794 838.986 502.055 835.705 495.879 829.158C489.704 822.61 486.616 813.25 486.616 801.106C486.616 788.961 489.993 780.042 496.748 773.453C503.502 766.864 512.972 763.569 525.144 763.569C529.762 763.569 534.118 764.01 538.212 764.879C542.306 765.747 545.877 766.85 548.923 768.187L542.651 783.737C537.372 781.131 531.568 779.822 525.241 779.822C519.451 779.822 514.985 781.71 511.814 785.46C508.658 789.223 507.072 794.599 507.072 801.588C507.072 808.577 508.506 813.677 511.36 817.275C514.213 820.873 518.348 822.665 523.724 822.665C526.661 822.665 529.376 822.375 531.858 821.81V810.314H518.762V795.013L518.79 795.04Z" fill="#E1051A"/>
<path d="M570.537 837.994V764.631H590.36V821.989H618.605V837.994H570.537Z" fill="#E1051A"/>
<path d="M704.126 801.216C704.126 813.553 701.094 822.941 695.042 829.365C688.99 835.788 680.127 839 668.451 839C656.775 839 648.118 835.774 641.984 829.323C635.85 822.872 632.776 813.471 632.776 801.119C632.776 788.768 635.822 779.587 641.929 773.15C648.036 766.712 656.913 763.487 668.547 763.487C680.182 763.487 689.073 766.685 695.097 773.067C701.121 779.463 704.126 788.837 704.126 801.216ZM653.646 801.216C653.646 815.401 658.581 822.486 668.451 822.486C673.469 822.486 677.191 820.763 679.617 817.317C682.043 813.87 683.256 808.508 683.256 801.216C683.256 793.924 682.029 788.479 679.562 784.977C677.094 781.476 673.427 779.739 668.547 779.739C658.609 779.739 653.646 786.893 653.646 801.216Z" fill="#E1051A"/>
<path d="M722.515 764.631H748.1C758.066 764.631 765.469 766.106 770.307 769.069C775.146 772.033 777.558 776.637 777.558 782.896C777.558 787.003 776.511 790.519 774.402 793.427C772.292 796.336 769.522 798.211 766.075 799.051V799.548C770.624 800.747 773.919 802.76 775.959 805.572C777.999 808.384 779.019 812.023 779.019 816.517C779.019 823.175 776.524 828.413 771.52 832.245C766.517 836.077 759.707 837.994 751.078 837.994H722.529V764.631H722.515ZM742.338 792.779H748.307C751.147 792.779 753.352 792.2 754.91 791.029C756.467 789.857 757.239 788.12 757.239 785.804C757.239 781.683 754.124 779.629 747.907 779.629H742.338V792.779ZM742.338 807.281V822.679H749.313C755.503 822.679 758.59 820.073 758.59 814.849C758.59 812.409 757.763 810.534 756.109 809.225C754.455 807.915 752.056 807.267 748.913 807.267H742.338V807.281Z" fill="#E1051A"/>
<path d="M841.906 837.994L838.294 824.25H814.46L810.752 837.994H788.972L812.902 764.341H839.342L863.575 837.994H841.892H841.906ZM834.172 807.984L831.016 795.936C830.285 793.262 829.389 789.802 828.328 785.542C827.28 781.297 826.577 778.25 826.246 776.417C825.943 778.126 825.35 780.938 824.468 784.839C823.586 788.754 821.614 796.46 818.568 807.97H834.172V807.984Z" fill="#E1051A"/>
<path d="M876.644 837.994V764.631H896.466V821.989H924.711V837.994H876.644Z" fill="#E1051A"/>
</svg>
