
<svg width="500" height="500" viewBox="0 0 500 500" fill="none" xmlns="http://www.w3.org/2000/svg">
<path d="M471.62 140L434.931 361H394.573L321.733 221.904H320.007L296.806 361H250.081L286.77 140H327.776L400.292 278.988H402.126L425.111 140H471.62Z" fill="white"/>
<path d="M108.422 361H29L65.6895 140H143.601C165.83 140 184.283 144.532 198.958 153.597C213.706 162.661 224.102 175.646 230.144 192.552C236.187 209.386 237.267 229.493 233.382 252.874C229.641 275.463 222.195 294.851 211.044 311.038C199.894 327.152 185.614 339.526 168.204 348.159C150.795 356.72 130.867 361 108.422 361ZM82.4155 320.965H111.12C125.004 320.965 137.162 318.375 147.593 313.196C158.096 308.016 166.693 300.031 173.384 289.24C180.146 278.449 184.93 264.636 187.736 247.802C190.398 231.832 190.218 218.882 187.196 208.955C184.247 198.955 178.527 191.653 170.039 187.049C161.55 182.373 150.399 180.035 136.586 180.035H105.832L82.4155 320.965Z" fill="white"/>
</svg>
